HIERARCHY
ROOT Hips
{
 OFFSET 0.000000 0.000000 0.000000
 CHANNELS 6 Xposition Yposition Zposition Yrotation Xrotation Zrotation
 JOINT Chest
 {
  OFFSET 0.000000 9.303000 0.001900
  CHANNELS 3 Yrotation Xrotation Zrotation
  JOINT Chest2
  {
   OFFSET 0.000000 9.301100 -0.003900
   CHANNELS 3 Yrotation Xrotation Zrotation
   JOINT Chest3
   {
    OFFSET 0.000000 9.262800 0.000000
    CHANNELS 3 Yrotation Xrotation Zrotation
    JOINT Chest4
    {
     OFFSET 0.000000 9.253300 0.000000
     CHANNELS 3 Yrotation Xrotation Zrotation
     JOINT Neck
     {
      OFFSET 0.000000 14.010300 0.000000
      CHANNELS 3 Yrotation Xrotation Zrotation
      JOINT Head
      {
       OFFSET 0.000000 8.657600 -0.008300
       CHANNELS 3 Yrotation Xrotation Zrotation
       End Site
       {
        OFFSET 0.000000 16.540200 -0.004400
       }
      }
     }
     JOINT RightCollar
     {
      OFFSET -2.834100 9.267700 0.000000
      CHANNELS 3 Yrotation Xrotation Zrotation
      JOINT RightShoulder
      {
       OFFSET -13.135200 0.000000 0.000000
       CHANNELS 3 Yrotation Xrotation Zrotation
       JOINT RightElbow
       {
        OFFSET 0.000000 -28.893500 0.000000
        CHANNELS 3 Yrotation Xrotation Zrotation
        JOINT RightWrist
        {
         OFFSET 0.000000 -23.344000 0.000000
         CHANNELS 3 Yrotation Xrotation Zrotation
         End Site
         {
          OFFSET 0.000000 -17.223000 0.000000
         }
        }
       }
      }
     }
     JOINT LeftCollar
     {
      OFFSET 2.834100 9.267700 0.000000
      CHANNELS 3 Yrotation Xrotation Zrotation
      JOINT LeftShoulder
      {
       OFFSET 13.135200 0.000000 0.000000
       CHANNELS 3 Yrotation Xrotation Zrotation
       JOINT LeftElbow
       {
        OFFSET 0.000000 -28.893500 0.000000
        CHANNELS 3 Yrotation Xrotation Zrotation
        JOINT LeftWrist
        {
         OFFSET 0.000000 -23.344000 0.000000
         CHANNELS 3 Yrotation Xrotation Zrotation
         End Site
         {
          OFFSET 0.000000 -17.223000 0.000000
         }
        }
       }
      }
     }
    }
   }
  }
 }
 JOINT RightHip
 {
  OFFSET -7.547200 -0.009500 -0.001000
  CHANNELS 3 Yrotation Xrotation Zrotation
  JOINT RightKnee
  {
   OFFSET 0.000000 -39.762800 0.000900
   CHANNELS 3 Yrotation Xrotation Zrotation
   JOINT RightAnkle
   {
    OFFSET 0.000000 -38.588200 0.001600
    CHANNELS 3 Yrotation Xrotation Zrotation
    JOINT RightToe
    {
     OFFSET 0.000000 -4.693300 10.419700
     CHANNELS 3 Yrotation Xrotation Zrotation
     End Site
     {
      OFFSET 0.000000 -1.379900 5.669300
     }
    }
   }
  }
 }
 JOINT LeftHip
 {
  OFFSET 7.547200 -0.009500 -0.001000
  CHANNELS 3 Yrotation Xrotation Zrotation
  JOINT LeftKnee
  {
   OFFSET 0.000000 -39.762800 0.000900
   CHANNELS 3 Yrotation Xrotation Zrotation
   JOINT LeftAnkle
   {
    OFFSET 0.000000 -38.588200 0.001600
    CHANNELS 3 Yrotation Xrotation Zrotation
    JOINT LeftToe
    {
     OFFSET 0.000000 -4.693300 10.419700
     CHANNELS 3 Yrotation Xrotation Zrotation
     End Site
     {
      OFFSET 0.000000 -1.379900 5.669300
     }
    }
   }
  }
 }
}
MOTION
Frames: 9
Frame Time: 0.008333
0.000000 82.880600 0.000000 0.000000 -5.767877 0.000000 0.000000 11.653817 0.000000 0.000000 -5.885947 0.000000 0.000000 -0.000000 0.000000 0.000000 -0.000000 0.000000 0.000000 12.528835 0.000000 0.000000 0.711642 0.000000 0.000000 -0.000000 0.000000 0.000000 0.000000 -90.000000 0.000000 -2.309062 0.000000 0.000000 2.309062 0.000000 0.000000 -0.000000 0.000000 0.000000 -0.000000 90.000000 0.000000 -2.309062 0.000000 0.000000 2.309062 0.000000 0.000000 8.520406 0.000000 0.000000 1.905762 0.000000 -0.000000 -4.658285 0.000000 0.000000 -0.000000 0.000000 0.000000 8.520406 0.000000 0.000000 1.905762 0.000000 -0.000000 -4.658285 0.000000 0.000000 -0.000000 0.000000
-8.694000 45.835724 25.629122 160.370186 -14.322569 0.072872 4.225709 9.659105 1.032968 0.264926 0.593065 0.061712 0.456172 1.054510 0.103648 3.947232 8.886548 1.149975 -0.831918 22.426218 -0.646666 -0.736457 -1.788720 -0.490470 5.179333 1.281414 -2.484949 1.863035 -17.721078 -5.149437 -28.654832 -72.511738 32.508713 -12.636942 -7.652960 -26.281256 -11.958523 -1.909258 -5.384956 10.921577 -18.557862 12.011247 43.137434 -60.764599 -53.167691 9.756859 -9.145782 19.002123 -19.157691 -73.489044 18.112771 -78.009154 84.983931 -80.820379 -7.652536 -6.418956 -0.813505 0.036930 -0.176255 0.008692 3.960750 -73.600622 14.564220 77.264966 77.214632 75.038831 -10.748742 -5.227928 3.745634 0.067069 0.267475 0.024680
-8.696318 45.837491 25.631992 160.372126 -14.314356 0.079764 4.222216 9.674801 1.015989 0.265172 0.596808 0.066482 0.455477 1.080344 0.094298 3.945904 8.880840 1.148802 -0.689157 22.623874 -0.514387 -0.613146 -1.553713 -0.370871 5.134606 1.253637 -2.522016 1.880346 -17.658074 -5.116806 -27.968317 -72.538414 31.857621 -12.546829 -7.398719 -25.940443 -11.961877 -1.945240 -5.367469 10.919404 -18.480232 12.019575 43.173884 -60.818990 -53.213641 9.694715 -9.048247 18.962522 -19.143115 -73.499349 18.092808 -77.980509 84.972615 -80.785208 -7.648146 -6.415736 -0.819174 0.036564 -0.177839 0.010038 4.001684 -73.604567 14.516641 77.223816 77.208353 74.996808 -10.742256 -5.226967 3.752729 0.057886 0.269472 0.021297
-8.697903 45.839636 25.635188 160.365150 -14.307918 0.082873 4.227647 9.694963 0.999182 0.266764 0.613333 0.060805 0.455571 1.044519 0.111421 3.941322 8.920433 1.128210 -0.530459 22.805722 -0.354472 -0.482942 -1.332333 -0.231588 5.117727 1.218699 -2.529272 1.878900 -17.579293 -5.098535 -27.237087 -72.561936 31.166100 -12.438698 -7.115577 -25.580102 -11.965117 -1.977332 -5.337847 10.920081 -18.452854 12.022443 42.974857 -60.819520 -53.054807 9.676153 -9.018819 18.926046 -19.133001 -73.501813 18.086081 -77.874286 84.964615 -80.679475 -7.620707 -6.416741 -0.814379 0.040375 -0.172668 0.007077 4.031759 -73.607587 14.489436 77.194970 77.202509 74.969741 -10.735712 -5.230417 3.757134 0.054090 0.271992 0.019306
-8.699989 45.841515 25.639806 160.364585 -14.292973 0.083218 4.227190 9.689444 0.990918 0.264955 0.622377 0.052721 0.461493 1.052019 0.111291 3.937369 8.968964 1.086428 -0.352350 22.929058 -0.147361 -0.345173 -1.139503 -0.077954 5.099428 1.151927 -2.512591 1.883616 -17.498589 -5.074653 -26.499024 -72.567173 30.469028 -12.313644 -6.809987 -25.210325 -11.982478 -2.033674 -5.272082 10.899514 -18.370696 12.021974 42.856524 -60.848025 -52.940240 9.665521 -8.998428 18.902520 -19.155240 -73.513053 18.104095 -77.773043 84.957909 -80.583411 -7.584169 -6.410474 -0.809104 0.012312 -0.176963 0.007195 4.048240 -73.619235 14.470846 77.137316 77.197568 74.911394 -10.730813 -5.225664 3.758478 0.050479 0.269222 0.019886
-8.703949 45.843183 25.643670 160.367752 -14.278191 0.094155 4.219271 9.683857 0.970373 0.263688 0.630366 0.044562 0.459308 1.069933 0.097004 3.941063 8.961494 1.080776 -0.175536 23.056106 0.042202 -0.198471 -0.988365 0.085543 5.091954 1.128937 -2.508913 1.892540 -17.415219 -5.060207 -25.791290 -72.546480 29.799115 -12.179455 -6.483060 -24.831682 -12.040254 -2.064565 -5.246603 10.901316 -18.288371 12.023986 42.788354 -60.864852 -52.847268 9.648377 -8.965051 18.897536 -19.142689 -73.528799 18.088600 -77.682939 84.945472 -80.493582 -7.610930 -6.407620 -0.802244 0.042261 -0.174078 0.002812 4.098652 -73.629425 14.413414 77.079193 77.187268 74.847995 -10.729484 -5.213521 3.762356 0.043468 0.265760 0.020632
-8.705742 45.844873 25.645721 160.360491 -14.276971 0.098415 4.222625 9.695453 0.953015 0.266479 0.621318 0.054918 0.455478 1.074966 0.082408 3.938560 8.970776 1.063889 0.008591 23.139866 0.237631 -0.045014 -0.888108 0.253852 5.098475 1.109483 -2.486183 1.906350 -17.330455 -5.067289 -25.141498 -72.497613 29.181695 -12.043886 -6.139436 -24.443826 -12.063027 -2.091938 -5.215738 10.863778 -18.221945 12.014749 42.697169 -60.849304 -52.723933 9.631244 -9.006669 18.901638 -19.135574 -73.528820 18.084550 -77.617159 84.941494 -80.432617 -7.588163 -6.403471 -0.797615 0.035992 -0.174344 0.000494 4.117673 -73.628407 14.400272 77.058051 77.185874 74.823602 -10.726648 -5.209471 3.764215 0.040472 0.263984 0.021532
-8.705674 45.845906 25.647411 160.357770 -14.278521 0.091641 4.218719 9.701849 0.932426 0.268208 0.621129 0.063253 0.457595 1.074840 0.082882 3.935613 8.975171 1.049267 0.193788 23.174848 0.431411 0.110117 -0.845484 0.420174 5.103438 1.098058 -2.490858 1.924927 -17.253449 -5.053432 -24.574710 -72.419842 28.642820 -11.913592 -5.788642 -24.052323 -12.078400 -2.111305 -5.186643 10.805014 -18.166474 11.997018 42.607695 -60.816022 -52.584489 9.625721 -8.958613 18.925646 -19.176617 -73.517894 18.126287 -77.542206 84.940172 -80.368704 -7.560810 -6.408394 -0.794390 0.044240 -0.170048 0.003159 4.094154 -73.626121 14.427211 77.044642 77.187516 74.806829 -10.713341 -5.210296 3.763082 0.033812 0.263422 0.023626
-8.706865 45.846189 25.647094 160.351049 -14.284802 0.097880 4.223917 9.708877 0.925038 0.266509 0.623043 0.052649 0.459504 1.073244 0.092692 3.925607 8.978162 1.025280 0.375072 23.158929 0.616133 0.263086 -0.863208 0.577619 5.110544 1.089476 -2.503096 1.940388 -17.196153 -5.033716 -24.048777 -72.304089 28.155543 -11.795114 -5.450158 -23.675719 -12.076551 -2.115209 -5.161145 10.719732 -18.133814 11.970774 42.516633 -60.766113 -52.429883 9.632258 -8.916221 18.965985 -19.150664 -73.513099 18.107431 -77.510860 84.937654 -80.336946 -7.585348 -6.409512 -0.790785 0.020194 -0.173065 0.005135 4.109577 -73.618032 14.419208 77.052210 77.187312 74.809669 -10.715168 -5.212708 3.762706 0.037635 0.261614 0.025816
